# Blender v2.92.0 OBJ File: 'arrow.blend'
# www.blender.org
mtllib arrow.mtl
o arrow_å††éŒ
v -0.000000 0.281745 5.797736
v 0.054966 0.276332 5.797736
v 0.107819 0.260299 5.797736
v 0.156529 0.234263 5.797736
v 0.199224 0.199224 5.797736
v 0.234263 0.156529 5.797736
v 0.260299 0.107819 5.797736
v 0.276332 0.054966 5.797736
v 0.281745 0.000000 5.797736
v 0.276332 -0.054966 5.797736
v 0.260299 -0.107819 5.797736
v 0.234263 -0.156529 5.797736
v 0.199224 -0.199224 5.797736
v 0.156529 -0.234263 5.797736
v 0.107819 -0.260299 5.797736
v 0.054966 -0.276332 5.797736
v -0.000000 -0.281745 5.797736
v -0.054966 -0.276332 5.797736
v -0.107819 -0.260299 5.797736
v -0.156530 -0.234263 5.797736
v -0.199224 -0.199224 5.797736
v -0.234263 -0.156529 5.797736
v -0.260299 -0.107819 5.797736
v -0.276332 -0.054966 5.797736
v -0.281745 0.000000 5.797736
v -0.276332 0.054966 5.797736
v -0.260299 0.107820 5.797736
v -0.234263 0.156530 5.797736
v -0.199224 0.199224 5.797736
v -0.156529 0.234263 5.797736
v -0.107819 0.260299 5.797736
v -0.054965 0.276332 5.797736
v 0.000000 -0.000000 7.797736
v 0.000000 0.398188 5.797736
v 0.077683 0.390537 5.797736
v 0.152380 0.367878 5.797736
v 0.221221 0.331081 5.797736
v 0.281561 0.281561 5.797736
v 0.331081 0.221221 5.797736
v 0.367878 0.152380 5.797736
v 0.390537 0.077683 5.797736
v 0.398188 0.000000 5.797736
v 0.390537 -0.077683 5.797736
v 0.367878 -0.152380 5.797736
v 0.331081 -0.221221 5.797736
v 0.281561 -0.281561 5.797736
v 0.221221 -0.331081 5.797736
v 0.152380 -0.367878 5.797736
v 0.077683 -0.390537 5.797736
v -0.000000 -0.398188 5.797736
v -0.077683 -0.390537 5.797736
v -0.152380 -0.367878 5.797736
v -0.221222 -0.331081 5.797736
v -0.281562 -0.281561 5.797736
v -0.331081 -0.221221 5.797736
v -0.367878 -0.152380 5.797736
v -0.390537 -0.077682 5.797736
v -0.398188 0.000000 5.797736
v -0.390537 0.077683 5.797736
v -0.367877 0.152380 5.797736
v -0.331081 0.221222 5.797736
v -0.281561 0.281562 5.797736
v -0.221221 0.331081 5.797736
v -0.152379 0.367878 5.797736
v -0.077682 0.390537 5.797736
v 0.000000 0.281746 -7.890469
v 0.054966 0.276332 -7.890469
v 0.107820 0.260299 -7.890469
v 0.156530 0.234263 -7.890469
v 0.199224 0.199225 -7.890469
v 0.234263 0.156530 -7.890469
v 0.260299 0.107820 -7.890469
v 0.276332 0.054966 -7.890469
v 0.281746 0.000001 -7.890469
v 0.276332 -0.054965 -7.890469
v 0.260299 -0.107819 -7.890469
v 0.234263 -0.156529 -7.890469
v 0.199224 -0.199223 -7.890469
v 0.156530 -0.234262 -7.890469
v 0.107820 -0.260298 -7.890469
v 0.054966 -0.276331 -7.890469
v 0.000000 -0.281745 -7.890469
v -0.054966 -0.276331 -7.890469
v -0.107819 -0.260298 -7.890469
v -0.156529 -0.234262 -7.890469
v -0.199224 -0.199223 -7.890469
v -0.234263 -0.156529 -7.890469
v -0.260299 -0.107818 -7.890469
v -0.276331 -0.054965 -7.890469
v -0.281745 0.000001 -7.890469
v -0.276331 0.054967 -7.890469
v -0.260298 0.107820 -7.890469
v -0.234262 0.156530 -7.890469
v -0.199224 0.199225 -7.890469
v -0.156529 0.234264 -7.890469
v -0.107819 0.260300 -7.890469
v -0.054965 0.276332 -7.890469
vt 0.250000 0.490000
vt 0.250000 0.250000
vt 0.296822 0.485388
vt 0.341844 0.471731
vt 0.383337 0.449553
vt 0.419706 0.419706
vt 0.449553 0.383337
vt 0.471731 0.341844
vt 0.485388 0.296822
vt 0.490000 0.250000
vt 0.485388 0.203178
vt 0.471731 0.158156
vt 0.449553 0.116663
vt 0.419706 0.080294
vt 0.383337 0.050447
vt 0.341844 0.028269
vt 0.296822 0.014612
vt 0.250000 0.010000
vt 0.203178 0.014612
vt 0.158156 0.028269
vt 0.116663 0.050447
vt 0.080294 0.080294
vt 0.050447 0.116663
vt 0.028269 0.158156
vt 0.014611 0.203179
vt 0.010000 0.250000
vt 0.014612 0.296822
vt 0.028269 0.341844
vt 0.050447 0.383337
vt 0.080295 0.419706
vt 0.116663 0.449553
vt 0.158156 0.471731
vt 0.608803 0.155655
vt 0.593110 0.185014
vt 0.593110 0.185014
vt 0.608803 0.155655
vt 0.203179 0.485389
vt 0.783130 0.416554
vt 0.750000 0.419817
vt 0.750000 0.490000
vt 0.796822 0.485388
vt 0.814986 0.406890
vt 0.841844 0.471731
vt 0.844345 0.391197
vt 0.883337 0.449553
vt 0.870078 0.370079
vt 0.919706 0.419706
vt 0.891198 0.344345
vt 0.949553 0.383337
vt 0.906890 0.314986
vt 0.971731 0.341844
vt 0.916554 0.283130
vt 0.985388 0.296822
vt 0.919817 0.250000
vt 0.990000 0.250000
vt 0.916553 0.216870
vt 0.985388 0.203178
vt 0.906890 0.185014
vt 0.971731 0.158156
vt 0.891198 0.155655
vt 0.949553 0.116663
vt 0.870079 0.129922
vt 0.919706 0.080294
vt 0.844345 0.108803
vt 0.883337 0.050447
vt 0.814986 0.093110
vt 0.841844 0.028269
vt 0.783130 0.083446
vt 0.796822 0.014612
vt 0.750000 0.080183
vt 0.750000 0.010000
vt 0.716870 0.083446
vt 0.703178 0.014612
vt 0.685014 0.093110
vt 0.658156 0.028269
vt 0.655655 0.108803
vt 0.616663 0.050447
vt 0.629922 0.129922
vt 0.580294 0.080294
vt 0.550447 0.116663
vt 0.528269 0.158156
vt 0.583446 0.216871
vt 0.514611 0.203179
vt 0.580183 0.250000
vt 0.510000 0.250000
vt 0.583446 0.283130
vt 0.514612 0.296822
vt 0.593110 0.314986
vt 0.528269 0.341844
vt 0.608803 0.344345
vt 0.550447 0.383337
vt 0.629922 0.370079
vt 0.580295 0.419706
vt 0.655655 0.391197
vt 0.616663 0.449553
vt 0.685014 0.406890
vt 0.658156 0.471731
vt 0.716871 0.416554
vt 0.703179 0.485389
vt 0.750000 0.419817
vt 0.783130 0.416554
vt 0.814986 0.406890
vt 0.844345 0.391197
vt 0.870078 0.370079
vt 0.891198 0.344345
vt 0.906890 0.314986
vt 0.916554 0.283130
vt 0.919817 0.250000
vt 0.916553 0.216870
vt 0.906890 0.185014
vt 0.891198 0.155655
vt 0.870079 0.129922
vt 0.844345 0.108803
vt 0.814986 0.093110
vt 0.783130 0.083446
vt 0.750000 0.080183
vt 0.716870 0.083446
vt 0.685014 0.093110
vt 0.655655 0.108803
vt 0.629922 0.129922
vt 0.583446 0.216871
vt 0.580183 0.250000
vt 0.583446 0.283130
vt 0.593110 0.314986
vt 0.608803 0.344345
vt 0.629922 0.370079
vt 0.655655 0.391197
vt 0.685014 0.406890
vt 0.716871 0.416554
vn 0.0961 0.9762 0.1944
vn 0.2848 0.9387 0.1944
vn 0.4624 0.8651 0.1944
vn 0.6223 0.7583 0.1944
vn 0.7583 0.6223 0.1944
vn 0.8651 0.4624 0.1944
vn 0.9387 0.2847 0.1944
vn 0.9762 0.0961 0.1944
vn 0.9762 -0.0961 0.1944
vn 0.9387 -0.2847 0.1944
vn 0.8651 -0.4624 0.1944
vn 0.7583 -0.6223 0.1944
vn 0.6223 -0.7583 0.1944
vn 0.4624 -0.8651 0.1944
vn 0.2847 -0.9387 0.1944
vn 0.0961 -0.9762 0.1944
vn -0.0961 -0.9762 0.1944
vn -0.2848 -0.9387 0.1944
vn -0.4624 -0.8651 0.1944
vn -0.6223 -0.7583 0.1944
vn -0.7583 -0.6223 0.1944
vn -0.8651 -0.4624 0.1944
vn -0.9387 -0.2847 0.1944
vn -0.9762 -0.0961 0.1944
vn -0.9762 0.0961 0.1944
vn -0.9387 0.2848 0.1944
vn -0.8651 0.4624 0.1944
vn -0.7583 0.6223 0.1944
vn -0.6223 0.7583 0.1944
vn -0.4624 0.8651 0.1944
vn -0.8819 -0.4714 -0.0000
vn -0.2847 0.9387 0.1944
vn -0.0961 0.9762 0.1944
vn 0.0000 0.0000 -1.0000
vn 0.9952 -0.0980 0.0000
vn -0.9569 -0.2903 -0.0000
vn 0.9569 -0.2903 0.0000
vn -0.9952 -0.0980 -0.0000
vn 0.8819 -0.4714 0.0000
vn -0.9952 0.0980 -0.0000
vn 0.7730 -0.6344 -0.0000
vn -0.9569 0.2903 -0.0000
vn 0.6344 -0.7730 -0.0000
vn -0.8819 0.4714 0.0000
vn 0.4714 -0.8819 -0.0000
vn 0.0980 0.9952 0.0000
vn -0.7730 0.6344 0.0000
vn 0.2903 -0.9569 -0.0000
vn 0.2903 0.9569 0.0000
vn -0.6344 0.7730 0.0000
vn 0.0980 -0.9952 -0.0000
vn 0.4714 0.8819 0.0000
vn -0.4714 0.8819 0.0000
vn -0.0980 -0.9952 -0.0000
vn 0.6344 0.7730 0.0000
vn -0.2903 0.9569 0.0000
vn -0.2903 -0.9569 -0.0000
vn 0.7730 0.6344 0.0000
vn -0.0980 0.9952 0.0000
vn -0.4714 -0.8819 -0.0000
vn 0.8819 0.4714 0.0000
vn -0.6344 -0.7730 -0.0000
vn 0.9569 0.2903 0.0000
vn -0.7730 -0.6344 -0.0000
vn 0.9952 0.0980 0.0000
usemtl blue
s off
f 34/1/1 33/2/1 35/3/1
f 35/3/2 33/2/2 36/4/2
f 36/4/3 33/2/3 37/5/3
f 37/5/4 33/2/4 38/6/4
f 38/6/5 33/2/5 39/7/5
f 39/7/6 33/2/6 40/8/6
f 40/8/7 33/2/7 41/9/7
f 41/9/8 33/2/8 42/10/8
f 42/10/9 33/2/9 43/11/9
f 43/11/10 33/2/10 44/12/10
f 44/12/11 33/2/11 45/13/11
f 45/13/12 33/2/12 46/14/12
f 46/14/13 33/2/13 47/15/13
f 47/15/14 33/2/14 48/16/14
f 48/16/15 33/2/15 49/17/15
f 49/17/16 33/2/16 50/18/16
f 50/18/17 33/2/17 51/19/17
f 51/19/18 33/2/18 52/20/18
f 52/20/19 33/2/19 53/21/19
f 53/21/20 33/2/20 54/22/20
f 54/22/21 33/2/21 55/23/21
f 55/23/22 33/2/22 56/24/22
f 56/24/23 33/2/23 57/25/23
f 57/25/24 33/2/24 58/26/24
f 58/26/25 33/2/25 59/27/25
f 59/27/26 33/2/26 60/28/26
f 60/28/27 33/2/27 61/29/27
f 61/29/28 33/2/28 62/30/28
f 62/30/29 33/2/29 63/31/29
f 63/31/30 33/2/30 64/32/30
f 22/33/31 23/34/31 88/35/31 87/36/31
f 64/32/32 33/2/32 65/37/32
f 65/37/33 33/2/33 34/1/33
f 2/38/34 1/39/34 34/40/34 35/41/34
f 3/42/34 2/38/34 35/41/34 36/43/34
f 4/44/34 3/42/34 36/43/34 37/45/34
f 5/46/34 4/44/34 37/45/34 38/47/34
f 6/48/34 5/46/34 38/47/34 39/49/34
f 7/50/34 6/48/34 39/49/34 40/51/34
f 8/52/34 7/50/34 40/51/34 41/53/34
f 9/54/34 8/52/34 41/53/34 42/55/34
f 10/56/34 9/54/34 42/55/34 43/57/34
f 11/58/34 10/56/34 43/57/34 44/59/34
f 12/60/34 11/58/34 44/59/34 45/61/34
f 13/62/34 12/60/34 45/61/34 46/63/34
f 14/64/34 13/62/34 46/63/34 47/65/34
f 15/66/34 14/64/34 47/65/34 48/67/34
f 16/68/34 15/66/34 48/67/34 49/69/34
f 17/70/34 16/68/34 49/69/34 50/71/34
f 18/72/34 17/70/34 50/71/34 51/73/34
f 19/74/34 18/72/34 51/73/34 52/75/34
f 20/76/34 19/74/34 52/75/34 53/77/34
f 21/78/34 20/76/34 53/77/34 54/79/34
f 22/33/34 21/78/34 54/79/34 55/80/34
f 23/34/34 22/33/34 55/80/34 56/81/34
f 24/82/34 23/34/34 56/81/34 57/83/34
f 25/84/34 24/82/34 57/83/34 58/85/34
f 26/86/34 25/84/34 58/85/34 59/87/34
f 27/88/34 26/86/34 59/87/34 60/89/34
f 28/90/34 27/88/34 60/89/34 61/91/34
f 29/92/34 28/90/34 61/91/34 62/93/34
f 30/94/34 29/92/34 62/93/34 63/95/34
f 31/96/34 30/94/34 63/95/34 64/97/34
f 32/98/34 31/96/34 64/97/34 65/99/34
f 1/39/34 32/98/34 65/99/34 34/40/34
f 66/100/34 67/101/34 68/102/34 69/103/34 70/104/34 71/105/34 72/106/34 73/107/34 74/108/34 75/109/34 76/110/34 77/111/34 78/112/34 79/113/34 80/114/34 81/115/34 82/116/34 83/117/34 84/118/34 85/119/34 86/120/34 87/36/34 88/35/34 89/121/34 90/122/34 91/123/34 92/124/34 93/125/34 94/126/34 95/127/34 96/128/34 97/129/34
f 9/54/35 10/56/35 75/109/35 74/108/35
f 23/34/36 24/82/36 89/121/36 88/35/36
f 10/56/37 11/58/37 76/110/37 75/109/37
f 24/82/38 25/84/38 90/122/38 89/121/38
f 11/58/39 12/60/39 77/111/39 76/110/39
f 25/84/40 26/86/40 91/123/40 90/122/40
f 12/60/41 13/62/41 78/112/41 77/111/41
f 26/86/42 27/88/42 92/124/42 91/123/42
f 13/62/43 14/64/43 79/113/43 78/112/43
f 27/88/44 28/90/44 93/125/44 92/124/44
f 14/64/45 15/66/45 80/114/45 79/113/45
f 1/39/46 2/38/46 67/101/46 66/100/46
f 28/90/47 29/92/47 94/126/47 93/125/47
f 15/66/48 16/68/48 81/115/48 80/114/48
f 2/38/49 3/42/49 68/102/49 67/101/49
f 29/92/50 30/94/50 95/127/50 94/126/50
f 16/68/51 17/70/51 82/116/51 81/115/51
f 3/42/52 4/44/52 69/103/52 68/102/52
f 30/94/53 31/96/53 96/128/53 95/127/53
f 17/70/54 18/72/54 83/117/54 82/116/54
f 4/44/55 5/46/55 70/104/55 69/103/55
f 31/96/56 32/98/56 97/129/56 96/128/56
f 18/72/57 19/74/57 84/118/57 83/117/57
f 5/46/58 6/48/58 71/105/58 70/104/58
f 32/98/59 1/39/59 66/100/59 97/129/59
f 19/74/60 20/76/60 85/119/60 84/118/60
f 6/48/61 7/50/61 72/106/61 71/105/61
f 20/76/62 21/78/62 86/120/62 85/119/62
f 7/50/63 8/52/63 73/107/63 72/106/63
f 21/78/64 22/33/64 87/36/64 86/120/64
f 8/52/65 9/54/65 74/108/65 73/107/65
